<?xml version="1.0" standalone="no"?><!DOCTYPE svg PUBLIC "-//W3C//DTD SVG 1.1//EN" "http://www.w3.org/Graphics/SVG/1.1/DTD/svg11.dtd"><svg t="1624016581652" class="icon" viewBox="0 0 1024 1024" version="1.1" xmlns="http://www.w3.org/2000/svg" p-id="1240" xmlns:xlink="http://www.w3.org/1999/xlink" width="200" height="200"><defs><style type="text/css"></style></defs><path d="M813.6 237.4c42.1 6.7 71 23.6 86.6 50.8 15.6 27.3 15.8 60.7 0.7 100.4s-41.9 81-80.4 123.7c38.2 42.8 64.8 84 79.9 123.7 15.1 39.7 14.9 73.2-0.7 100.4-15.9 27.3-44.8 44.2-86.6 51-41.8 6.8-90.9 3.9-147.3-8.7-17.5 55.1-39.7 99.1-66.6 132-26.9 32.9-56 49.3-87.5 49.3s-60.5-16.4-87.2-49.3c-26.7-32.9-48.9-76.7-66.3-131.5-56.4 12-105.6 14.6-147.6 7.7-41.9-6.8-70.8-23.8-86.3-51-15.6-27.2-15.9-60.6-1-100.2s41.8-80.6 80.7-123.5c-38.8-42.9-65.9-84-81-123.8-15.1-39.7-14.9-73.1 0.7-100.4 15.6-27.2 44.3-44.1 86.6-50.8 42.1-6.7 91.4-4 147.8 8.1 17.2-54.7 39.2-98.7 66.1-131.8C451 80.5 480.3 64 511.7 64s60.6 16.4 87.5 49.3S648.5 190 666 244.8c56.2-11.7 105.5-14.1 147.6-7.4z m-595 21.5c-37.2 4.6-62.4 18-75.3 40.3-13.3 22.7-12.5 51.2 2.4 85.5 14.9 34.4 40.3 70.4 76.3 108.4 30.5-30.8 65.1-60.5 104-88.9 4.6-46 12.8-90.9 24.8-134.6-50.8-11.7-94.9-15.2-132.2-10.7z m3 272.3c-35.6 37.9-60.9 74.1-75.5 108.4-14.7 34.4-15.5 62.7-2.1 85.1 12.9 22.7 38 36.2 75.1 40.6 37.1 4.4 81.1 0.5 132-11.5-12-42.8-20.3-87.1-24.8-133.2-39.1-28.4-74-58.4-104.7-89.4z m19.4-19c22.6 23 50.1 46.4 82.1 70-1.9-21.3-2.9-44.9-2.9-70.4 0-11.7 0.1-23.1 0.4-34.3 0.3-11.1 0.8-22.5 1.5-33.7-30.7 22.2-57.8 45.1-81.1 68.4z m189.1 141c26.8 15.9 54.2 30.1 82.1 42.8 28.5-12.9 55.7-27.3 81.7-42.8 28.9-16.9 54.6-33.2 77.2-49.1 2.5-26.5 3.9-57.3 3.9-92.3 0-34.7-1.3-65.3-3.9-91.9-24.3-16.2-50.2-32.6-77.8-49.1-26.6-14.9-53.7-29-81.2-42.3-27.9 13.3-55 27.4-81.2 42.3-29.5 17.5-55.4 34.1-77.8 49.5-2.5 25.9-3.8 56.3-3.8 91.4s1.3 65.6 3.8 91.9c20.6 14.6 46.2 31.1 77 49.6zM416.5 346c18.8-11.4 39.3-22.2 61.2-32.6-34.4-14.6-68-26.7-101.1-36.5-8.7 34.1-15.4 69.5-19.9 106.4 17.8-12.3 37.8-24.7 59.8-37.3z m61.2 365c-23.3-11-43.9-22.1-61.7-33.1-20.1-11-39.7-23.1-58.8-36.5 3.9 35 10.2 70.1 19 105.5 31.7-8.3 65.5-20.3 101.5-35.9z m34.6-414.1c46-20.1 88.8-35.1 128.4-45.2-15-50.3-33.7-90.3-56.2-120.3s-46.8-45-72.7-45-50.1 15-72.5 45c-22.3 30-41 69.8-55.9 119.4 41.9 11.6 84.7 27 128.9 46.1z m0 430.2c-42.1 19.1-84.9 34.4-128.4 45.7 14.5 50.2 33.1 90.3 55.4 120.1 22.4 29.8 46.5 44.7 72.5 44.7 25.9 0 50.2-14.9 72.7-44.7 22.5-29.8 41.3-69.8 56.1-120.1-43.1-11.1-85.9-26.3-128.3-45.7z m96.2-49.1c-23.7 13.9-44.3 24.9-62.2 33.1 35.6 15.6 69.5 27.6 101.6 36 7.7-30.1 14.2-65.1 19.4-105-18.5 11.9-38.1 23.9-58.8 35.9z m39.4-401.1c-31.1 8.8-64.8 20.8-101.1 36 24 12.3 44.2 23.3 60.8 33.1 22.1 12.6 42 25.1 59.8 37.5-4.3-36.1-10.8-71.5-19.5-106.6z m154 216.4c36-38 61.4-74.1 76.1-108.4 14.7-34.4 15.6-62.8 2.7-85.5-12.9-22.4-38.1-35.8-75.3-40.1-37.2-4.4-81.3-0.5-132.2 11.5 12 41.8 20.4 86.7 25.3 134.6 37.5 27.1 72 56.5 103.4 87.9z m3.2 272.1c37.1-4.6 62.1-17.9 75.1-40.3 12.9-22.4 12.1-50.7-2.7-85.1-14.7-34.4-40-70.7-75.5-108.9-30.8 31.1-65.5 60.8-104 89-4.9 46.4-13.2 90.9-24.8 133.7C724 766.2 768 770 805.1 765.4z m-60.3-217.5c13.8-11.8 26.5-23.8 38.2-35.8-22.1-21.8-49.1-44.9-81.2-69.5 1.6 26 2.4 48.9 2.4 69.1 0 22.4-0.8 46.5-2.4 72.5 14.9-12.3 29.2-24.4 43-36.3z" p-id="1241" fill="#e6e6e6"></path></svg>