<?xml version="1.0" standalone="no"?><!DOCTYPE svg PUBLIC "-//W3C//DTD SVG 1.1//EN" "http://www.w3.org/Graphics/SVG/1.1/DTD/svg11.dtd"><svg t="1670904774701" class="icon" viewBox="0 0 1024 1024" version="1.1" xmlns="http://www.w3.org/2000/svg" p-id="2145" xmlns:xlink="http://www.w3.org/1999/xlink" width="200" height="200"><path d="M156 191.584C156 85.776 241.776 0 347.586 0h328.736c105.81 0 191.586 85.776 191.586 191.584 0 67-34.392 125.968-86.486 160.21 52.094 34.244 86.486 93.21 86.486 160.21 0 105.81-85.776 191.586-191.586 191.586h-4.16c-49.604 0-94.806-18.852-128.83-49.782v176.526c0 107.22-88.018 193.666-194.714 193.666C243.072 1024 156 938.486 156 832.414c0-66.996 34.39-125.96 86.48-160.204C190.386 637.966 156 579 156 512.004c0-67 34.392-125.966 86.484-160.21C190.394 317.552 156 258.584 156 191.584z m324.576 191.59h-132.99c-71.152 0-128.83 57.68-128.83 128.83 0 70.876 57.234 128.384 128.006 128.828l0.824-0.002h132.99V383.174z m62.756 128.83c0 71.15 57.678 128.83 128.83 128.83h4.16c71.152 0 128.83-57.68 128.83-128.83s-57.678-128.83-128.83-128.83h-4.16c-71.152 0-128.83 57.68-128.83 128.83z m-195.746 191.586l-0.824-0.002c-70.772 0.442-128.006 57.95-128.006 128.826 0 70.89 58.45 128.83 129.862 128.83 72.564 0 131.958-58.872 131.958-130.91v-126.744h-132.99z m0-640.834c-71.152 0-128.83 57.68-128.83 128.828 0 71.152 57.68 128.83 128.83 128.83h132.99V62.754h-132.99z m195.746 257.658h132.99c71.152 0 128.83-57.678 128.83-128.83 0-71.15-57.678-128.828-128.83-128.828h-132.99v257.658z" p-id="2146"></path></svg>